<mxfile host="Electron" agent="Mozilla/5.0 (Windows NT 10.0; Win64; x64) AppleWebKit/537.36 (KHTML, like Gecko) draw.io/24.7.17 Chrome/128.0.6613.36 Electron/32.0.1 Safari/537.36" version="24.7.17">
  <diagram name="Page-1" id="lUc3miIrdiUI3Us3cTac">
    <mxGraphModel dx="880" dy="524" grid="1" gridSize="10" guides="1" tooltips="1" connect="1" arrows="1" fold="1" page="1" pageScale="1" pageWidth="850" pageHeight="1100" math="0" shadow="0">
      <root>
        <mxCell id="0" />
        <mxCell id="1" parent="0" />
        <mxCell id="yRN7GGLxVBnwohqa84Hu-1" value="START" style="ellipse;whiteSpace=wrap;html=1;" vertex="1" parent="1">
          <mxGeometry x="280" y="30" width="120" height="80" as="geometry" />
        </mxCell>
        <mxCell id="yRN7GGLxVBnwohqa84Hu-15" style="edgeStyle=orthogonalEdgeStyle;rounded=0;orthogonalLoop=1;jettySize=auto;html=1;exitX=0.5;exitY=1;exitDx=0;exitDy=0;entryX=0.5;entryY=0;entryDx=0;entryDy=0;" edge="1" parent="1" source="yRN7GGLxVBnwohqa84Hu-2" target="yRN7GGLxVBnwohqa84Hu-3">
          <mxGeometry relative="1" as="geometry" />
        </mxCell>
        <mxCell id="yRN7GGLxVBnwohqa84Hu-2" value="&lt;br&gt;&lt;span style=&quot;color: rgb(45, 59, 69); font-family: LatoWeb, &amp;quot;Lato Extended&amp;quot;, Lato, &amp;quot;Helvetica Neue&amp;quot;, Helvetica, Arial, sans-serif; font-size: 16px; font-style: normal; font-variant-ligatures: normal; font-variant-caps: normal; font-weight: 400; letter-spacing: normal; orphans: 2; text-align: left; text-indent: 0px; text-transform: none; widows: 2; word-spacing: 0px; -webkit-text-stroke-width: 0px; white-space: normal; background-color: rgb(255, 255, 255); text-decoration-thickness: initial; text-decoration-style: initial; text-decoration-color: initial; display: inline !important; float: none;&quot;&gt;This program calculates Hazel&#39;s Housecleaning service charges&lt;/span&gt;&lt;div&gt;&lt;br/&gt;&lt;/div&gt;" style="rounded=0;whiteSpace=wrap;html=1;" vertex="1" parent="1">
          <mxGeometry x="200" y="130" width="310" height="60" as="geometry" />
        </mxCell>
        <mxCell id="yRN7GGLxVBnwohqa84Hu-16" style="edgeStyle=orthogonalEdgeStyle;rounded=0;orthogonalLoop=1;jettySize=auto;html=1;exitX=0.5;exitY=1;exitDx=0;exitDy=0;entryX=0.5;entryY=0;entryDx=0;entryDy=0;" edge="1" parent="1" source="yRN7GGLxVBnwohqa84Hu-3" target="yRN7GGLxVBnwohqa84Hu-4">
          <mxGeometry relative="1" as="geometry" />
        </mxCell>
        <mxCell id="yRN7GGLxVBnwohqa84Hu-3" value="SET customerLastName&lt;div&gt;SET numberOfBathrooms&lt;/div&gt;&lt;div&gt;SET numberOfRooms&lt;/div&gt;&lt;div&gt;SET costOfBathroomsToBeClean&lt;/div&gt;&lt;div&gt;SET costOfRoomsToBeClean&lt;/div&gt;&lt;div&gt;SET totalCostOfService&lt;/div&gt;&lt;div&gt;SET service charge =40&amp;nbsp;&lt;/div&gt;&lt;div&gt;SET costPerBathroom=15&lt;/div&gt;&lt;div&gt;SET costPerRoom=10&lt;/div&gt;" style="rounded=0;whiteSpace=wrap;html=1;" vertex="1" parent="1">
          <mxGeometry x="200" y="210" width="310" height="150" as="geometry" />
        </mxCell>
        <mxCell id="yRN7GGLxVBnwohqa84Hu-4" value="&lt;div&gt;INPUT customerLastName&lt;/div&gt;INPUT numberOfBathrooms&lt;div&gt;INPUT numberOfRooms&lt;/div&gt;" style="shape=parallelogram;perimeter=parallelogramPerimeter;whiteSpace=wrap;html=1;fixedSize=1;" vertex="1" parent="1">
          <mxGeometry x="220" y="390" width="290" height="120" as="geometry" />
        </mxCell>
        <mxCell id="yRN7GGLxVBnwohqa84Hu-5" value="COMPUTE costOfBathroomsToBeClean = numberOfBathrrom * costPerBathroom&lt;div&gt;&lt;br&gt;&lt;/div&gt;&lt;div&gt;COMPUTE costOfRoomsToBeClean = numberOfRooms * costPerRoom&lt;/div&gt;&lt;div&gt;&lt;br&gt;&lt;/div&gt;&lt;div&gt;COMPUTE totalCostOfService = costOfBathroomsToBeClean + costOfRoomsToBeClean + serviceCharge&lt;/div&gt;&lt;div&gt;&lt;br&gt;&lt;/div&gt;&lt;div&gt;&lt;br&gt;&lt;/div&gt;" style="rounded=0;whiteSpace=wrap;html=1;" vertex="1" parent="1">
          <mxGeometry x="110" y="560" width="600" height="150" as="geometry" />
        </mxCell>
        <mxCell id="yRN7GGLxVBnwohqa84Hu-6" value="OUTPUT&amp;nbsp; customerLastName&lt;div&gt;OUTPUT numberOfBathrooms&lt;/div&gt;&lt;div&gt;OUTPUT &quot;The cost for the Bathrooms is &quot;costOfBathroomsToBeClean&lt;/div&gt;&lt;div&gt;OUTPUT numberOfRooms&lt;/div&gt;&lt;div&gt;OUTPUT &quot;The cost for the rooms is &quot; costOfRoomsToBeClean&lt;/div&gt;&lt;div&gt;OUTPUT &quot;the cost for the service will be &quot; totalCostOfService&lt;/div&gt;&lt;div&gt;&lt;br&gt;&lt;/div&gt;&lt;div&gt;OUTPUT &quot;Estimate for services completed&quot;&lt;/div&gt;" style="shape=parallelogram;perimeter=parallelogramPerimeter;whiteSpace=wrap;html=1;fixedSize=1;" vertex="1" parent="1">
          <mxGeometry x="120" y="790" width="510" height="150" as="geometry" />
        </mxCell>
        <mxCell id="yRN7GGLxVBnwohqa84Hu-7" value="STOP" style="ellipse;whiteSpace=wrap;html=1;" vertex="1" parent="1">
          <mxGeometry x="260" y="980" width="220" height="80" as="geometry" />
        </mxCell>
        <mxCell id="yRN7GGLxVBnwohqa84Hu-14" style="edgeStyle=orthogonalEdgeStyle;rounded=0;orthogonalLoop=1;jettySize=auto;html=1;exitX=0.5;exitY=1;exitDx=0;exitDy=0;entryX=0.455;entryY=0;entryDx=0;entryDy=0;entryPerimeter=0;" edge="1" parent="1" source="yRN7GGLxVBnwohqa84Hu-1" target="yRN7GGLxVBnwohqa84Hu-2">
          <mxGeometry relative="1" as="geometry" />
        </mxCell>
        <mxCell id="yRN7GGLxVBnwohqa84Hu-17" style="edgeStyle=orthogonalEdgeStyle;rounded=0;orthogonalLoop=1;jettySize=auto;html=1;exitX=0.5;exitY=1;exitDx=0;exitDy=0;entryX=0.425;entryY=0.027;entryDx=0;entryDy=0;entryPerimeter=0;" edge="1" parent="1" source="yRN7GGLxVBnwohqa84Hu-4" target="yRN7GGLxVBnwohqa84Hu-5">
          <mxGeometry relative="1" as="geometry" />
        </mxCell>
        <mxCell id="yRN7GGLxVBnwohqa84Hu-18" style="edgeStyle=orthogonalEdgeStyle;rounded=0;orthogonalLoop=1;jettySize=auto;html=1;exitX=0.5;exitY=1;exitDx=0;exitDy=0;entryX=0.559;entryY=0.047;entryDx=0;entryDy=0;entryPerimeter=0;" edge="1" parent="1" source="yRN7GGLxVBnwohqa84Hu-5" target="yRN7GGLxVBnwohqa84Hu-6">
          <mxGeometry relative="1" as="geometry" />
        </mxCell>
        <mxCell id="yRN7GGLxVBnwohqa84Hu-19" style="edgeStyle=orthogonalEdgeStyle;rounded=0;orthogonalLoop=1;jettySize=auto;html=1;exitX=0.5;exitY=1;exitDx=0;exitDy=0;entryX=0.545;entryY=0.075;entryDx=0;entryDy=0;entryPerimeter=0;" edge="1" parent="1" source="yRN7GGLxVBnwohqa84Hu-6" target="yRN7GGLxVBnwohqa84Hu-7">
          <mxGeometry relative="1" as="geometry" />
        </mxCell>
      </root>
    </mxGraphModel>
  </diagram>
</mxfile>
